<?xml version="1.0" encoding="UTF-8" standalone="no"?>
<!-- Created with Inkscape (http://www.inkscape.org/) -->

<svg
   width="60"
   height="60"
   viewBox="0 0 60 60"
   version="1.1"
   id="svg5"
   xmlns="http://www.w3.org/2000/svg"
   xmlns:svg="http://www.w3.org/2000/svg">
  <defs
     id="defs2" />
  <g
     id="layer1"
     style="fill:#ffffff">
    <g
       id="layer2"
       style="fill:#808000" />
    <path
       style="display:inline;fill:#ffffff;fill-opacity:1;stroke:#000000;stroke-width:2.19956;stroke-linejoin:round;stroke-opacity:0"
       d="m 34.622798,23.22565 -0.04613,12.676956 7.468617,-6.008128 z"
       id="path352" />
    <path
       style="display:inline;fill:#ffffff;fill-opacity:1;stroke:#000000;stroke-width:2.19956;stroke-linejoin:round;stroke-opacity:0"
       d="m 25.923683,23.218781 0.04614,12.676956 -7.468615,-6.008128 z"
       id="path2212" />
    <g
       aria-label="OWN"
       id="text2320"
       style="font-style:italic;font-weight:bold;font-size:22.4626px;font-family:Lato;-inkscape-font-specification:'Lato Bold Italic';stroke:#000000;stroke-width:2.311;stroke-linejoin:round;stroke-opacity:0"
       transform="matrix(0.4852057,0,0,0.57687766,1.7037778,-5.6263448)">
      <path
         d="m 19.669168,78.016918 q 1.192628,-0.627763 2.417178,-0.92964 1.20938,-0.306583 2.390002,-0.30611 1.180623,4.74e-4 2.29221,0.303822 1.111587,0.303347 2.093459,0.890741 0.97664,0.577454 1.793226,1.42954 0.806646,0.857317 1.387327,1.960497 0.721927,1.371522 0.810386,2.7211 0.08846,1.349578 -0.358211,2.574683 -0.451902,1.215166 -1.400229,2.234715 -0.948326,1.01955 -2.309909,1.736246 -1.192628,0.627762 -2.402008,0.934346 -1.224549,0.301876 -2.405172,0.301403 -1.185854,-0.01041 -2.29221,-0.303822 -1.111587,-0.303347 -2.088227,-0.880802 -0.991811,-0.582162 -1.798457,-1.439479 -0.816586,-0.852085 -1.402497,-1.965204 -0.721927,-1.371522 -0.810387,-2.7211 -0.08846,-1.349579 0.363443,-2.564744 0.451902,-1.215166 1.410167,-2.239947 0.948326,-1.01955 2.309909,-1.736245 z m 1.451172,2.612269 q -0.973979,0.512673 -1.63828,1.179645 -0.669533,0.657034 -0.990157,1.422334 -0.325856,0.755361 -0.283451,1.583417 0.04241,0.828056 0.481839,1.662895 0.564987,1.073365 1.467874,1.727717 0.897656,0.644414 2.032255,0.846804 1.134599,0.202389 2.450693,-0.04613 1.310862,-0.258464 2.692322,-0.985622 0.973979,-0.512673 1.643512,-1.169707 0.669532,-0.657034 0.995388,-1.412395 0.315917,-0.75013 0.278743,-1.568247 -0.05234,-0.822824 -0.497009,-1.667602 -0.570217,-1.083303 -1.473105,-1.737656 -0.902887,-0.654352 -2.027548,-0.861973 -1.12466,-0.207621 -2.425584,0.04561 -1.316093,0.248524 -2.707492,0.980914 z"
         id="path2626" />
      <path
         d="m 10.744555,72.389128 -0.04967,-2.279413 q -0.0083,-0.381774 0.177674,-0.610506 0.17452,-0.239716 0.465486,-0.290992 l 9.928726,-1.643061 q 0.358582,-0.04152 0.773553,-0.07303 0.414725,-0.04274 0.87461,-0.07523 -0.92711,-0.271882 -1.663577,-0.559151 L 11.203476,63.032468 q -0.249721,-0.118132 -0.457709,-0.383216 -0.21946,-0.276067 -0.22729,-0.635383 l -0.01492,-0.684947 q -0.0083,-0.381773 0.177919,-0.599277 0.175009,-0.217259 0.464997,-0.313449 l 9.924566,-1.833948 q 0.346864,-0.06373 0.750116,-0.117451 0.403008,-0.06495 0.840191,-0.10818 -0.440608,-0.113972 -0.836302,-0.228924 -0.406922,-0.114706 -0.76893,-0.230392 L 11.012387,54.262904 q -0.135722,-0.04198 -0.250211,-0.14059 -0.125717,-0.09837 -0.218482,-0.231152 -0.09301,-0.144015 -0.152823,-0.311221 -0.06006,-0.178435 -0.06397,-0.358093 l -0.05016,-2.30187 16.381208,6.282326 0.0575,2.63873 -11.21121,2.075429 q -0.21261,0.03833 -0.458662,0.08863 -0.257524,0.03931 -0.537751,0.06789 0.282673,0.08371 0.543134,0.179142 0.248987,0.08445 0.464289,0.169627 l 11.351163,4.347349 0.05701,2.616272 z"
         id="path2628" />
      <path
         d="m 14.360139,40.528626 q 0.08047,-0.173147 0.152907,-0.275716 0.06699,-0.117488 0.160513,-0.185487 0.08334,-0.07273 0.197957,-0.10616 0.114615,-0.03343 0.295074,-0.04864 L 27.884231,38.850327 Q 27.59833,38.692686 27.332799,38.544512 27.061816,38.38142 26.831574,38.237262 l -8.845607,-5.510431 1.083961,-2.332391 13.885116,8.657529 -0.634283,1.364805 q -0.142004,0.305553 -0.338524,0.461921 -0.201972,0.141449 -0.526884,0.200993 l -12.70344,1.03174 q 0.234975,0.133973 0.459766,0.263213 0.214606,0.124506 0.408841,0.239546 l 9.064946,5.624752 -1.083962,2.332391 -13.885115,-8.657529 z"
         id="path2630" />
    </g>
    <ellipse
       style="display:none;fill:#ffffff;fill-opacity:1;stroke:#000000;stroke-width:7.58769;stroke-linejoin:round;stroke-opacity:0"
       id="path2428"
       cx="-16.564013"
       cy="-91.942558"
       rx="43.606014"
       ry="43.313156"
       transform="matrix(-0.80045439,0.59939367,-0.62825988,-0.77800355,0,0)" />
    <g
       aria-label="RENT"
       transform="matrix(-0.4852057,0,0,-0.57687766,58.801757,65.750475)"
       id="text2437"
       style="font-style:italic;font-weight:bold;font-size:22.4626px;font-family:Lato;-inkscape-font-specification:'Lato Bold Italic';stroke:#000000;stroke-width:2.311;stroke-linejoin:round;stroke-opacity:0">
      <path
         d="m 27.851306,87.280948 5.941074,-2.511037 1.445024,2.511659 -15.062724,6.385475 -2.301956,-4.001131 q -0.700109,-1.216888 -0.935738,-2.234537 -0.250965,-1.021782 -0.102929,-1.845525 0.138301,-0.818142 0.629595,-1.450648 0.491293,-0.632505 1.260367,-1.074974 0.81775,-0.470472 1.672569,-0.651294 0.839483,-0.184956 1.675628,-0.08293 0.830545,0.09229 1.627081,0.463301 0.790934,0.361273 1.487982,1.009795 0.02468,-0.61024 0.383815,-1.179669 l 3.802201,-5.530526 1.305003,2.268281 q 0.375258,0.652252 -0.0077,1.15767 l -3.378383,4.69065 q -0.185903,0.262444 -0.192173,0.499286 -0.02161,0.232707 0.185625,0.592906 z M 20.805499,90.25912 25.92149,88.093201 25.086961,86.64267 q -0.436868,-0.759339 -0.964689,-1.181286 -0.543157,-0.426082 -1.130058,-0.567847 -0.596637,-0.136164 -1.213413,-0.01455 -0.616777,0.121614 -1.210618,0.463267 -0.915101,0.526481 -1.100611,1.397699 -0.19111,0.861482 0.486595,2.039431 z"
         id="path2633" />
      <path
         d="m 10.50264,67.660775 2.333516,-0.212216 1.398676,6.385222 4.629313,-0.439166 -1.098273,-5.013825 2.243344,-0.203962 1.098273,5.013826 4.754802,-0.443659 -1.403482,-6.407165 2.333517,-0.212217 2.028319,9.25967 -16.292089,1.522191 z"
         id="path2635" />
      <path
         d="m 10.516487,57.94789 q 0.02392,-0.189428 0.06168,-0.309185 0.02803,-0.132307 0.09641,-0.225557 0.05724,-0.09466 0.156227,-0.1614 0.09899,-0.06674 0.266247,-0.136187 l 11.790135,-4.884628 q -0.320327,-0.06309 -0.618369,-0.123367 -0.307778,-0.07283 -0.570984,-0.140025 L 11.5943,49.412495 11.916518,46.860791 27.778567,50.87883 27.59002,52.371967 q -0.04221,0.334285 -0.181781,0.54307 -0.149305,0.196236 -0.440653,0.351894 l -11.785913,4.8512 q 0.264613,0.05606 0.518084,0.110704 0.242327,0.05324 0.46237,0.103668 l 10.347266,2.597144 -0.322218,2.551704 -15.862049,-4.018039 z"
         id="path2637" />
      <path
         d="m 19.993072,29.083315 1.995168,1.354328 -2.010238,3.954778 11.571354,7.796833 -1.313015,2.583121 -11.581533,-7.776809 -2.020416,3.974802 -2.000257,-1.344316 z"
         id="path2639" />
    </g>
  </g>
</svg>
